<?xml version="1.0" encoding="utf-8"?>
<!-- Generator: Adobe Illustrator 23.1.0, SVG Export Plug-In . SVG Version: 6.00 Build 0)  -->
<svg version="1.1" id="Ebene_1" xmlns="http://www.w3.org/2000/svg" xmlns:xlink="http://www.w3.org/1999/xlink" x="0px" y="0px"
	 viewBox="0 0 234 246.19" style="enable-background:new 0 0 234 246.19;" xml:space="preserve">
<style type="text/css">
	.st0{fill:#FFFFFF;}
	.st1{fill:#F4B060;}
	.st2{fill:#79CADC;}
	.st3{fill:#EFE52F;}
	.st4{fill:#7BBF7B;}
	.st5{fill:#F28A1C;}
	.st6{fill:#FCCC8E;}
	.st7{fill:#EA4E63;}
	.st8{fill:#585857;}
	.st9{fill:none;stroke:#020203;stroke-width:16;stroke-miterlimit:10;}
	.st10{fill:none;}
	.st11{font-family:'Roboto-Regular';}
	.st12{font-size:24px;}
</style>
<rect class="st0" width="234" height="246.19"/>
<g>
	<path class="st1" d="M136.38,99.5c0,0,9.75-27.61,13.02-30.34c3.35-2.8,7.94-0.81,8.57,3.28c0.62,4.09-10.04,27.71-10.04,27.71
		l-6.31-1.76l-2.68,1.42L136.38,99.5z"/>
</g>
<g>
	<path class="st2" d="M119.42,91.53V80.56l6.04-6.59v-5.62l10.05,0.31v5.28l4.33,4.2l-8.21,21.15l-3.57,0.54
		C128.06,99.84,128.66,91.62,119.42,91.53z"/>
</g>
<g>
	<path class="st3" d="M115.76,98.88c0,0-0.79-6.49,4.42-6.93c5.22-0.45,6.36,6.93,6.36,6.93l-5.41,1.84L115.76,98.88z"/>
</g>
<g>
	<path class="st4" d="M110.33,90.97c0,0-8.92-9.23-6.3-10.12c4.78-1.63-1.2-4.63-0.06-7.82c0.8-2.23,3.48,2.01,4.53,1.65
		c1.05-0.36,1.74-0.33,1.6-4.75c-0.14-4.38,3.46-3.74,2.91,3.55c-0.04,0.56,0.02,0.07,0.01,0.11c-0.12,0.57-1.02,5.23,3.04,0.85
		c1.62-1.75,3.36-0.14,3.36-0.14l-4.75,6.8l0.55,12l-3.32,1.41L110.33,90.97z"/>
</g>
<g>
	<path class="st5" d="M105.58,100.4c0,0-7.85-12.47-5.05-13.99c2.8-1.53,8.59-2.04,10.88,11.07
		C112.17,99.7,105.58,100.4,105.58,100.4z"/>
</g>
<g>
	<rect x="106.17" y="99.84" class="st6" width="43.78" height="43.78"/>
</g>
<g>
	<circle class="st7" cx="97.5" cy="134.54" r="9.09"/>
</g>
<g>
	<path class="st8" d="M121.8,172.36c-8.45,0-16.65-1.66-24.37-4.92c-7.46-3.15-14.15-7.67-19.9-13.42
		c-5.75-5.75-10.26-12.44-13.42-19.9c-3.27-7.72-4.92-15.92-4.92-24.37s1.66-16.65,4.92-24.37c3.15-7.46,7.67-14.15,13.42-19.9
		c5.75-5.75,12.44-10.26,19.9-13.42c7.72-3.27,15.92-4.92,24.37-4.92c8.45,0,16.65,1.66,24.37,4.92c7.46,3.15,14.15,7.67,19.9,13.42
		c5.75,5.75,10.26,12.44,13.42,19.9c3.27,7.72,4.92,15.92,4.92,24.37h-2.71c0-33.03-26.87-59.89-59.89-59.89
		c-33.03,0-59.89,26.87-59.89,59.89c0,33.03,26.87,59.89,59.89,59.89c28.53,0,53.24-20.28,58.76-48.23l2.66,0.53
		c-2.77,14.02-10.38,26.8-21.44,35.98c-5.5,4.57-11.68,8.13-18.36,10.59C136.51,171.07,129.24,172.36,121.8,172.36z"/>
</g>
<g>
	<path class="st9" d="M128.64,68.34"/>
</g>
<g>
	<path class="st8" d="M121.8,189.73c-10.8,0-21.27-2.11-31.13-6.29c-9.52-4.03-18.08-9.79-25.42-17.14
		c-7.34-7.34-13.11-15.9-17.14-25.42c-4.17-9.86-6.29-20.33-6.29-31.13c0-23.47,10.26-45.68,28.15-60.91l1.76,2.07
		c-17.28,14.72-27.19,36.17-27.19,58.84c0,42.6,34.66,77.26,77.26,77.26s77.26-34.66,77.26-77.26S164.4,32.5,121.8,32.5
		c-10.43,0-20.55,2.04-30.07,6.07l-1.06-2.5c9.86-4.17,20.33-6.29,31.13-6.29s21.27,2.11,31.13,6.29
		c9.52,4.03,18.08,9.79,25.42,17.14c7.34,7.34,13.11,15.9,17.14,25.42c4.17,9.86,6.29,20.33,6.29,31.13s-2.11,21.27-6.29,31.13
		c-4.03,9.52-9.79,18.08-17.14,25.42c-7.34,7.34-15.9,13.11-25.42,17.14C143.07,187.61,132.6,189.73,121.8,189.73z"/>
</g>
<g>
	<path class="st8" d="M121.8,205.31c-14.99,0-29.35-3.37-42.66-10.03l1.21-2.43c12.94,6.47,26.88,9.74,41.45,9.74
		c51.19,0,92.84-41.65,92.84-92.84c0-51.19-41.65-92.84-92.84-92.84c-51.19,0-92.84,41.65-92.84,92.84
		c0,24.23,9.28,47.16,26.13,64.57l-1.95,1.89c-17.34-17.92-26.9-41.52-26.9-66.46c0-12.9,2.53-25.41,7.51-37.2
		c4.81-11.38,11.7-21.6,20.48-30.37s18.99-15.67,30.37-20.48c11.78-4.98,24.3-7.51,37.2-7.51c12.9,0,25.41,2.53,37.2,7.51
		c11.38,4.81,21.6,11.7,30.37,20.48c8.78,8.78,15.67,18.99,20.48,30.37c4.98,11.78,7.51,24.3,7.51,37.2s-2.53,25.41-7.51,37.2
		c-4.81,11.38-11.7,21.6-20.48,30.37c-8.78,8.78-18.99,15.67-30.37,20.48C147.22,202.79,134.7,205.31,121.8,205.31z"/>
</g>
<g>
	<g>
		<path class="st8" d="M145.58,76.92l2.58-0.85l2.65,8.14l-2.58,0.83L145.58,76.92z"/>
	</g>
	<g>
		<path class="st8" d="M141.61,86.42l2.58-0.85l2.65,8.14l-2.58,0.85L141.61,86.42z"/>
	</g>
	<g>
		<path class="st8" d="M95.85,90.38c-0.29,2.07,0.32,4.17,1.66,5.77l1.97,2.46v22.68h2.71v-20.52l1.97,1.31
			c0.46,0.31,1.05,0.31,1.51,0l3.32-2.22l3.32,2.2c0.46,0.31,1.05,0.31,1.51,0l3.32-2.2l3.32,2.2c0.46,0.31,1.05,0.31,1.51,0
			l3.32-2.2l3.32,2.2c0.46,0.31,1.05,0.31,1.51,0l3.32-2.2l2.71,1.81v41.33h-29.85v2.71h37.99c3.75,0,6.78-3.04,6.78-6.78V98.21
			c0-0.31-0.1-0.59-0.29-0.81l7.77-20.88c1.05-2.8,0.66-5.95-1.03-8.41c-1.61-2.39-4.33-3.82-7.21-3.82
			c-3.68,0.03-6.95,2.34-8.24,5.78l-2.12,5.67l-2.51-2.51v-4.87c0-0.75-0.61-1.36-1.36-1.36h-14.93c-0.75,0-1.36,0.61-1.36,1.36
			v2.32c-1.53-1.39-3.85-1.48-5.48-0.19v-2.14c0-2.22-1.8-4.02-4.02-4.02c-2.22,0-4.02,1.8-4.02,4.02v2.14
			c-0.75-0.61-1.68-0.95-2.65-0.95c-1.12,0-2.19,0.44-2.97,1.26c-1.61,1.66-1.61,4.29-0.02,5.97l1.26,1.31
			c-0.46,0.2-0.88,0.51-1.24,0.87h-0.02l-0.02,0.02c-0.32,0.32-0.58,0.7-0.78,1.1l-1.54-2.85l-2.39,1.29l3.51,6.48
			c-0.15,0.08-0.32,0.17-0.46,0.27c-0.05,0.03-0.1,0.08-0.15,0.12l-5.26-4.83l-1.83,2l5.22,4.82C96.39,88.25,96,89.29,95.85,90.38z
			 M124.51,97.07l-3.32,2.22l-3.32-2.2c-0.46-0.31-1.05-0.31-1.51,0l-3.29,2.19c0-0.14-0.03-0.25-0.03-0.39
			c-0.02-2.99,2.14-5.53,5.09-6.02c2.93-0.49,5.8,1.22,6.77,4.04C124.77,96.94,124.63,97.01,124.51,97.07z M127.97,98.4l-0.03-0.02
			c-0.17-2.85-1.7-5.44-4.12-6.97c-2.43-1.51-5.43-1.76-8.06-0.66v-8.82h12.21V98.4z M148.33,138.92c0,2.26-1.81,4.07-4.07,4.07
			h-5.43v-41.33l2.71-1.81l3.32,2.2c0.46,0.31,1.05,0.31,1.51,0l1.97-1.31v38.18H148.33z M144.65,71.02
			c0.88-2.39,3.15-3.99,5.7-4.02c2,0,3.87,0.98,4.97,2.65c1.2,1.73,1.48,3.95,0.73,5.92l-8.4,22.37l-2.04,1.36l-3.32-2.2
			c-0.46-0.31-1.05-0.31-1.51,0l-3.32,2.2l-2.75-1.83L144.65,71.02z M138.93,78.52l-7.21,19.17l-1.05,0.7V81.13l5.43-5.43
			L138.93,78.52z M122.55,69.72h12.21v2.71h-12.21V69.72z M121.75,75.14h11.09l-4.07,4.07h-11.09L121.75,75.14z M102.63,72.7
			c0.27-0.29,0.64-0.44,1.03-0.44c0.39,0,0.76,0.15,1.03,0.44l1.98,2.04c0.39,0.39,0.97,0.51,1.49,0.31
			c0.51-0.2,0.85-0.71,0.85-1.26v-5.43c-0.02-0.47,0.22-0.93,0.64-1.19c0.41-0.25,0.93-0.25,1.34,0c0.41,0.25,0.66,0.7,0.64,1.19
			v5.43c0,0.54,0.34,1.05,0.85,1.26c0.51,0.2,1.1,0.08,1.48-0.31l2-2.04c0.58-0.56,1.49-0.56,2.07,0c0.59,0.61,0.59,1.56,0,2.17
			l-4,4.07l0.03,0.03l-0.63,0.63c-0.1,0.12-0.2,0.24-0.25,0.39c-0.02,0.03-0.03,0.08-0.05,0.14c-0.03,0.12-0.07,0.24-0.07,0.36
			c0,0.03-0.02,0.05-0.02,0.08v11.97c-0.31,0.29-0.59,0.61-0.87,0.95l-2.58-5.46c-0.95-1.88-2.66-3.27-4.7-3.8
			c-0.47-0.12-0.97-0.2-1.46-0.22l-0.36-0.41c-0.27-0.31-0.47-0.56-0.51-0.59c-0.36-0.37-0.51-0.88-0.41-1.37
			c0.05-0.29,0.19-0.54,0.37-0.76l0.02-0.02l0.03-0.03c0.49-0.47,1.26-0.56,1.83-0.17c0.58,0.39,1.34,0.27,1.8-0.25
			c0.44-0.53,0.42-1.31-0.07-1.81l-3.58-3.7C102.04,74.28,102.06,73.31,102.63,72.7z M98.55,90.75c0.17-1.32,0.9-2.49,2-3.24
			c1.09-0.73,2.44-0.97,3.71-0.64c1.27,0.32,2.34,1.19,2.93,2.36l3.46,7.36c-0.08,0.32-0.15,0.64-0.2,0.97l-0.71-0.47
			c-0.46-0.31-1.05-0.31-1.51,0l-3.32,2.2l-3-2l-0.29-0.36l3.49-2.7l-1.66-2.15l-3.53,2.73l-0.31-0.37
			C98.75,93.41,98.36,92.07,98.55,90.75z"/>
	</g>
	<g>
		<path class="st8" d="M86.1,142.31c1.03,2.09,3.15,3.39,5.48,3.39c0.95,0,1.88-0.22,2.73-0.64l1.1-0.54l1.1,0.54
			c0.85,0.42,1.78,0.64,2.73,0.64c2.32,0,4.44-1.31,5.48-3.39l0.47-0.95c1.59-3.19,2.43-6.7,2.43-10.26c0-3.94-3.19-7.11-7.11-7.11
			c-1.32,0-2.61,0.37-3.75,1.09v-1.09c0-3-2.43-5.43-5.43-5.43v2.71c1.49,0,2.71,1.22,2.71,2.71v1.09
			c-1.12-0.71-2.43-1.09-3.75-1.09c-3.94,0-7.11,3.19-7.11,7.11c0,3.56,0.83,7.07,2.43,10.26L86.1,142.31z M90.3,126.71
			c1.17,0,2.29,0.46,3.1,1.29l1.03,1.03c0.53,0.53,1.39,0.53,1.92,0l1.03-1.03c1.26-1.26,3.15-1.63,4.8-0.95
			c1.65,0.68,2.71,2.29,2.71,4.07c0,3.14-0.73,6.24-2.14,9.06l-0.47,0.95c-0.58,1.15-1.76,1.88-3.05,1.88
			c-0.53,0-1.05-0.12-1.53-0.36L96,141.8c-0.39-0.19-0.83-0.19-1.22,0l-1.71,0.85c-0.47,0.24-1,0.36-1.53,0.36
			c-1.29,0-2.48-0.73-3.05-1.88l-0.47-0.95c-1.41-2.82-2.14-5.9-2.14-9.04C85.91,128.67,87.88,126.71,90.3,126.71z"/>
	</g>
</g>
<rect x="19.89" y="220.88" class="st10" width="205.31" height="25.31"/>
<text transform="matrix(1 0 0 1 46.9487 238.875)" class="st8 st11 st12">SAFEMARKET</text>
</svg>
